<svg xmlns="http://www.w3.org/2000/svg" viewBox="0 0 469.7 200.0" role="img" aria-label="Lynx">
<g fill="#FFFFFF" transform="translate(0,0) scale(0.47393364928909953) translate(-24,-24)">
  <path d="M0 0 C11.56 4.093 19.572 13.844 24.874 24.523 C28.258 31.65 31.134 38.295 30.906 46.293 C30.819 56.989 34.136 64.003 39.282 73.308 C48.933 90.765 53.744 109.869 59 129 C59.562 129.09 60.123 129.18 60.702 129.272 C79.571 132.345 96.728 136.678 114.062 144.875 C115.085 145.356 116.108 145.838 117.161 146.334 C124.352 149.86 130.672 154.107 137 159 C137.463 159.357 137.463 159.357 139.804 161.163 C151.233 170.1 167.195 182.923 172 197 C172.255 199.704 172.255 199.704 172.273 202.605 C172.284 203.139 172.284 203.139 172.336 205.838 C172.362 208.051 172.38 210.265 172.391 212.479 C172.734 228.372 180.899 238.501 190.864 250.097 C206.057 267.859 206.057 267.859 207 278 C204.376 280.624 196.901 279.235 193.375 279.25 C192.198 279.271 191.021 279.291 189.809 279.312 C183.426 279.341 178.621 279.132 173 276 C173.625 277.354 174.306 278.681 175 280 C175.258 280.505 175.258 280.505 176.562 283.062 C179.825 286.995 183.15 287.819 188 289 C187.67 290.052 187.34 291.104 187 292.188 C186.16 295.389 185.802 297.741 186 301 C190.046 300.459 192.34 299.309 195.5 296.75 C196.272 296.125 197.044 295.5 197.84 294.855 C200.373 292.68 202.715 290.433 205 288 C204.584 298.391 200.003 309.117 192.812 316.645 C189.89 318.83 187.605 319 184 319 C182.257 316.703 180.601 314.401 179 312 C178.082 312.482 177.164 312.964 176.219 313.461 C174.979 314.099 173.74 314.737 172.5 315.375 C171.899 315.692 171.299 316.009 170.68 316.336 C158.009 322.806 141.627 323.749 128 320 C125.68 319.145 123.368 318.269 121.062 317.375 C112.132 314.057 104.142 313.486 95.188 317 C93.788 317.659 92.392 318.325 91 319 C91.716 318.954 92.432 318.909 93.17 318.862 C101.482 318.565 108.141 320.188 115.938 322.938 C118.113 323.678 120.288 324.416 122.465 325.152 C123.41 325.482 124.354 325.812 125.328 326.152 C141.779 331.372 158.904 327.483 174.881 322.551 C177 322 177 322 180 322 C179.416 333.721 177.773 343.794 170 353 C160.885 360.883 150.458 362.815 138.75 363.812 C137.516 363.933 136.283 364.054 135.012 364.178 C132.009 364.469 129.006 364.742 126 365 C125 362 125 362 124.25 358.562 C122.535 353.676 120.392 352.229 115.871 349.906 C108.073 346.402 99.595 344.736 91.188 346.938 C85.641 349.152 81.706 353.407 79.162 358.765 C77.18 363.592 76.389 367.984 76.375 373.188 C76.37 373.944 76.366 374.701 76.361 375.48 C76.628 384.872 79.988 393.459 83.357 402.131 C84 404 84 404 84 406 C65.014 403.857 47.682 388.649 36.039 374.641 C22.242 356.037 15.805 333.599 18.75 310.562 C19.708 304.888 21.121 299.437 23 294 C13.37 300.617 5.365 308.342 -2.7 316.766 C-4 318 -4 318 -5 318 C-6.25 292.207 2.505 269.976 19.562 250.688 C21.035 249.119 22.514 247.556 24 246 C24.3 245.663 24.3 245.663 25.816 243.957 C39.142 229.538 63.065 216.463 82.66 214.664 C89.091 214.488 94.588 214.355 100 218 C101.919 220.202 103.652 222.449 105.324 224.844 C107.842 228.084 110.114 229.705 114 231 C116.103 231.126 118.207 231.228 120.312 231.312 C125.68 231.694 128.85 232.369 133 236 C133.788 236.597 134.575 237.194 135.387 237.809 C138.105 240.088 140.141 242.452 142.312 245.25 C142.661 245.696 142.661 245.696 144.426 247.953 C144.945 248.629 145.465 249.304 146 250 C141.359 236.741 134.394 218.697 121 212 C108.62 207.865 95.659 210.667 83.125 212.625 C82.253 212.761 81.38 212.896 80.481 213.036 C56.721 216.774 33.432 222.47 15 239 C14.185 239.686 13.371 240.372 12.531 241.078 C-2.215 253.781 -11.158 269.668 -17 288 C-17.342 289.048 -17.683 290.096 -18.035 291.176 C-23.46 311.438 -20.84 334.457 -14 354 C-14 355.32 -14 356.64 -14 358 C-13.34 358 -12.68 358 -12 358 C-11.888 357.117 -11.776 356.234 -11.66 355.324 C-9.767 345.789 -2.768 337.569 3 330 C3.66 330.33 4.32 330.66 5 331 C5.354 333.72 5.606 336.393 5.812 339.125 C8.491 366.698 24.582 390.959 45 409 C48.525 411.868 52.214 414.489 56 417 C52.601 418.12 50.154 417.875 46.66 417.215 C45.608 417.017 44.556 416.82 43.472 416.616 C42.347 416.392 41.222 416.168 40.062 415.938 C38.898 415.708 37.733 415.478 36.532 415.241 C25.831 413.069 15.386 410.368 5 407 C4.098 406.708 3.196 406.415 2.267 406.114 C-23.358 397.642 -45.657 384.896 -65 366 C-65.86 365.202 -66.72 364.404 -67.605 363.582 C-87.491 344.683 -97.104 319.303 -103 293 C-105.599 304.468 -106.388 315.264 -106.188 327 C-106.172 328.565 -106.159 330.13 -106.146 331.695 C-106.114 335.464 -106.063 339.232 -106 343 C-124.675 324.672 -132.775 295.127 -137 270 C-137.131 269.272 -137.263 268.543 -137.398 267.793 C-137.697 265.875 -137.846 263.935 -138 262 C-138.088 260.955 -138.175 259.909 -138.266 258.832 C-138.294 258.241 -138.294 258.241 -138.438 255.25 C-138.498 254.162 -138.559 253.074 -138.621 251.953 C-137.826 241.625 -129.248 231.046 -124 222.438 C-123.631 221.831 -123.262 221.224 -122.882 220.599 C-113.435 205.114 -103.184 190.457 -90.446 177.481 C-89.004 176.004 -87.593 174.503 -86.184 172.996 C-77.079 163.41 -66.537 154.525 -55 148 C-55.017 148.466 -55.017 148.466 -55.105 150.824 C-55.371 163.323 -54 174.293 -47 185 C-47.036 184.589 -47.036 184.589 -47.219 182.508 C-50.054 148.408 -39.414 121.051 -17.727 95.016 C-13.574 90.138 -9.31 85.37 -4.91 80.715 C9 65.981 9 65.981 9 56 C6.463 36.842 -4.422 22.028 -19 10 C-15.268 8.756 -13.869 9.732 -10.453 11.4 C-9.746 11.763 -9.04 12.126 -8.312 12.5 C-7.952 12.684 -7.952 12.684 -6.125 13.615 C2.011 17.888 7.618 22.952 12.871 30.496 C13.244 30.992 13.616 31.489 14 32 C14.33 32 14.66 32 15 32 C11.4 21.088 7.482 10.921 0 2 C0 1.34 0 0.68 0 0 Z M20 76 C-0.733 97.767 -18.883 121.152 -18.434 152.598 C-18.102 159.251 -16.162 165.298 -14.148 171.606 C-12.051 178.293 -11.213 183.965 -12 191 C-5.722 185.137 -2.396 177.962 -1.926 169.379 C-2.083 164.337 -3.387 160.262 -5.582 155.742 C-9.293 147.149 -6.396 135.206 -3.242 126.758 C-0.516 120.705 2.972 115.26 7 110 C6.856 110.655 6.711 111.31 6.562 111.984 C4.73 120.996 2.804 130.725 7.648 139.055 C9.801 142.153 12.108 145.112 14.512 148.02 C17.504 152.001 17.308 156.407 17.562 161.188 C17.606 161.937 17.649 162.687 17.693 163.459 C17.799 165.306 17.9 167.153 18 169 C22.444 167.519 25.811 165.067 29.438 162.188 C29.985 161.761 30.532 161.335 31.096 160.896 C32.741 159.61 34.372 158.308 36 157 C36.553 156.56 37.106 156.12 37.676 155.667 C40.268 153.567 42.134 151.8 44 149 C44.452 143.364 43.365 138.433 41.988 133.023 C41.778 132.176 41.568 131.329 41.352 130.456 C40.906 128.669 40.456 126.882 40.002 125.096 C39.321 122.407 38.656 119.714 37.994 117.02 C34.987 104.957 31.405 93.431 25.875 82.25 C25.398 81.265 24.921 80.28 24.43 79.266 C23 77 23 77 20 76 Z M117 182 C117.338 182.617 117.675 183.235 118.023 183.871 C120.271 188.139 122.128 191.812 122.75 196.625 C123.784 202.543 128.431 205.549 133 209 C133.66 208.67 134.32 208.34 135 208 C133.439 197.793 130.285 190.528 122 184 C119.277 182.801 119.277 182.801 117 182 Z " transform="translate(163,27)"/>
  <path d="M0 0 C9.684 9.108 11.96 22.6 12.438 35.438 C12.339 40.266 11.405 44.269 10 48.875 C7.616 56.878 7.836 64.715 8 73 C8.323 90.246 6.267 106.53 1 123 C-2.759 121.823 -6.407 120.456 -10.055 118.977 C-25.236 112.825 -39.733 108.341 -56 106 C-56.672 103.703 -56.672 103.703 -57 101 C-55.953 99.297 -55.953 99.297 -54.25 97.75 C-53.598 97.152 -52.945 96.554 -52.273 95.938 C-48.894 93.057 -45.473 90.233 -42.02 87.441 C-12.534 63.601 -12.534 63.601 -8 50 C-6.756 33.96 -8.764 19.472 -16 5 C-7.559 8.741 -3.777 16.849 -0.066 24.852 C1.038 28.111 1.21 30.586 1 34 C1.66 34 2.32 34 3 34 C2.219 10.211 2.219 10.211 0 0 Z " transform="translate(285,43)"/>
</g>
<g fill="#FFFFFF" transform="translate(195.98104265402844,40.0) scale(0.07755166520658902,-0.07755166520658902) translate(-20,-1489)">
<path transform="translate(0,0)" d="M20 1489H369V268H656V-58H20Z"/>
<path transform="translate(676,0)" d="M641 1489H972L670 424V-58H321V418L20 1489H377L511 867Z"/>
<path transform="translate(1668,0)" d="M918 1489V-58H578Q509 -62 497 -21L317 781L318 -58H20V1489H458L622 796L620 1489Z"/>
<path transform="translate(2606,0)" d="M32 1489H389L499 1050L602 1489H933L722 735L943 -58H584L468 434L353 -58H20L240 735Z"/>
</g>
</svg>
